<?xml version="1.0" encoding="UTF-8"?>
<svg xmlns="http://www.w3.org/2000/svg" version="1.1" width="5000px" height="5000px" style="shape-rendering:geometricPrecision; text-rendering:geometricPrecision; image-rendering:optimizeQuality; fill-rule:evenodd; clip-rule:evenodd" xmlns:xlink="http://www.w3.org/1999/xlink">
<g><path style="opacity:0.989" fill="#fefffe" d="M 4892.5,1853.5 C 4893.21,1970.66 4881.04,2086.66 4856,2201.5C 4831.82,2311.05 4800.15,2418.38 4761,2523.5C 4711.53,2654.76 4660.7,2785.42 4608.5,2915.5C 4620.83,2915.5 4633.17,2915.5 4645.5,2915.5C 4645.97,2920.54 4646.64,2925.54 4647.5,2930.5C 4642.7,2932.62 4637.7,2933.95 4632.5,2934.5C 4632.5,2958.17 4632.5,2981.83 4632.5,3005.5C 4672.29,3011.26 4712.29,3013.1 4752.5,3011C 4777.24,3008.6 4801.91,3006.77 4826.5,3005.5C 4800,3021.59 4773.33,3037.42 4746.5,3053C 4736.5,3056.33 4726.5,3059.67 4716.5,3063C 4663.69,3069.21 4610.69,3072.55 4557.5,3073C 4516.5,3073.67 4475.5,3073.67 4434.5,3073C 4395.63,3071.49 4357.29,3066.16 4319.5,3057C 4294.32,3051.24 4271.32,3040.91 4250.5,3026C 4243,3018.5 4235.5,3011 4228,3003.5C 4225.7,2997.29 4223.87,2990.96 4222.5,2984.5C 4266.07,2978.98 4309.73,2974.31 4353.5,2970.5C 4370.86,2971.73 4387.86,2974.89 4404.5,2980C 4432.53,2984.45 4460.53,2989.12 4488.5,2994C 4508.72,2996.01 4528.89,2997.17 4549,2997.5C 4550.67,2994.17 4552.33,2990.83 4554,2987.5C 4554.77,2972.16 4555.6,2956.82 4556.5,2941.5C 4554.86,2941.71 4553.36,2941.38 4552,2940.5C 4543.33,2957.83 4534.67,2975.17 4526,2992.5C 4524.95,2993.52 4523.78,2993.68 4522.5,2993C 4378.06,2909.43 4230.73,2830.43 4080.5,2756C 4039.86,2736.51 3998.86,2717.84 3957.5,2700C 3868.84,2663.17 3776.84,2638.83 3681.5,2627C 3664.19,2625.33 3646.86,2624 3629.5,2623C 3763.85,2604.08 3894.52,2570.74 4021.5,2523C 4297.05,2419.83 4540.72,2267.49 4752.5,2066C 4793.84,2026.02 4830.67,1982.52 4863,1935.5C 4876.77,1914.96 4886.43,1892.63 4892,1868.5C 4892.5,1863.51 4892.67,1858.51 4892.5,1853.5 Z M 4352.5,2400.5 C 4354.19,2401.47 4355.69,2402.81 4357,2404.5C 4386.03,2443.23 4415.53,2481.57 4445.5,2519.5C 4492.7,2502.33 4539.7,2485.66 4586.5,2469.5C 4567.21,2515.21 4548.21,2561.05 4529.5,2607C 4567.14,2639.64 4605.14,2671.97 4643.5,2704C 4594.33,2711.15 4545,2717.81 4495.5,2724C 4486.18,2773.1 4477.01,2822.27 4468,2871.5C 4437.69,2831.53 4407.02,2791.86 4376,2752.5C 4329.74,2769.36 4283.41,2786.03 4237,2802.5C 4236.5,2802.17 4236,2801.83 4235.5,2801.5C 4254.7,2755.91 4273.7,2710.25 4292.5,2664.5C 4254.47,2632.14 4216.47,2599.8 4178.5,2567.5C 4227.83,2560.83 4277.17,2554.17 4326.5,2547.5C 4335.71,2498.6 4344.37,2449.6 4352.5,2400.5 Z M 4679.5,2674.5 C 4661.3,2721.92 4642.8,2769.25 4624,2816.5C 4620.89,2822.38 4618.06,2828.38 4615.5,2834.5C 4612.81,2835.6 4610.14,2835.44 4607.5,2834C 4606.48,2832.95 4606.32,2831.78 4607,2830.5C 4630.94,2778.29 4655.11,2726.29 4679.5,2674.5 Z M 4596.5,2852.5 C 4599.04,2853.62 4601.71,2854.46 4604.5,2855C 4605.02,2855.56 4605.36,2856.23 4605.5,2857C 4598.92,2877.06 4591.76,2896.9 4584,2916.5C 4577.26,2917.84 4570.43,2918.34 4563.5,2918C 4574.64,2896.22 4585.64,2874.38 4596.5,2852.5 Z M 4613.5,2939.5 C 4615.5,2939.5 4617.5,2939.5 4619.5,2939.5C 4620.44,2960.84 4621.44,2982.17 4622.5,3003.5C 4605.16,3002.57 4587.82,3001.4 4570.5,3000C 4579.86,2980.44 4588.53,2960.61 4596.5,2940.5C 4602.36,2940.82 4608.02,2940.49 4613.5,2939.5 Z M 4570.5,2941.5 C 4571.68,2941.28 4572.68,2941.61 4573.5,2942.5C 4571.08,2950.48 4570.08,2950.15 4570.5,2941.5 Z"/></g>
<g><path style="opacity:0.995" fill="#fefffe" d="M 506.5,2203.5 C 756.167,2203.33 1005.83,2203.5 1255.5,2204C 1255,2204.5 1254.5,2205 1254,2205.5C 1233.51,2328.45 1212.18,2451.12 1190,2573.5C 1188.42,2580.7 1186.09,2587.7 1183,2594.5C 1179.26,2598.08 1174.76,2599.92 1169.5,2600C 1067.84,2599.8 966.17,2599.47 864.5,2599C 856.651,2597.91 849.651,2594.91 843.5,2590C 774.195,2523.03 705.195,2455.7 636.5,2388C 596.974,2350.47 557.474,2312.97 518,2275.5C 510.28,2267.39 504.613,2258.06 501,2247.5C 498.678,2232.26 500.512,2217.59 506.5,2203.5 Z"/></g>
<g><path style="opacity:0.991" fill="#fefffe" d="M 1371.5,2203.5 C 1471.83,2204.67 1572.17,2204.83 1672.5,2204C 1677.52,2205.23 1682.18,2207.23 1686.5,2210C 1689.33,2214.17 1692.17,2218.33 1695,2222.5C 1739.25,2316.61 1784.25,2410.27 1830,2503.5C 1904.51,2417.88 1977.18,2330.55 2048,2241.5C 2053.86,2235.64 2059.69,2229.81 2065.5,2224C 2071.33,2219.25 2077.66,2215.25 2084.5,2212C 2093.21,2208.32 2102.21,2205.65 2111.5,2204C 2158.49,2204.71 2205.49,2205.21 2252.5,2205.5C 2304.51,2205.28 2356.51,2204.62 2408.5,2203.5C 2406.9,2216.52 2405.07,2229.52 2403,2242.5C 2381.99,2360.73 2360.82,2479.06 2339.5,2597.5C 1989.17,2598.5 1638.83,2598.83 1288.5,2598.5C 1289.93,2586.64 1291.6,2574.81 1293.5,2563C 1309.64,2468.96 1326.48,2375.13 1344,2281.5C 1346.93,2260.28 1350.6,2239.28 1355,2218.5C 1355.89,2215.72 1357.06,2213.05 1358.5,2210.5C 1362.49,2207.34 1366.82,2205.01 1371.5,2203.5 Z"/></g>
<g><path style="opacity:0.993" fill="#fefffe" d="M 2513.5,2203.5 C 2698.84,2203.21 2884.17,2203.71 3069.5,2205C 3117.38,2204.48 3163.72,2212.48 3208.5,2229C 3306.1,2269.16 3341.76,2340.66 3315.5,2443.5C 3304.29,2481.29 3284.96,2513.95 3257.5,2541.5C 3232.24,2565.34 3203.57,2584.17 3171.5,2598C 3050.03,2599.16 2928.53,2599.66 2807,2599.5C 2685.15,2599.49 2563.32,2599.16 2441.5,2598.5C 2463.54,2472.69 2485.71,2347.02 2508,2221.5C 2509.59,2216.67 2510.75,2211.67 2511.5,2206.5C 2511.94,2205.26 2512.61,2204.26 2513.5,2203.5 Z"/></g>
<g><path style="opacity:0.99" fill="#fefffe" d="M 3452.5,2205.5 C 3557.5,2205.5 3662.5,2205.5 3767.5,2205.5C 3747.15,2322.09 3726.65,2438.75 3706,2555.5C 3703.72,2565.2 3701.05,2574.87 3698,2584.5C 3692.75,2594.05 3684.59,2598.88 3673.5,2599C 3576.83,2599.5 3480.17,2599.67 3383.5,2599.5C 3405.93,2468.17 3428.93,2336.83 3452.5,2205.5 Z"/></g>
<g><path style="opacity:0.982" fill="#fefffe" d="M 381.5,2388.5 C 444.33,2383.17 499.33,2401.33 546.5,2443C 589.006,2486.32 609.006,2538.49 606.5,2599.5C 443.5,2599.67 280.5,2599.5 117.5,2599C 125.87,2572.09 137.87,2546.93 153.5,2523.5C 198.214,2460.69 257.881,2418.52 332.5,2397C 348.892,2393.64 365.226,2390.81 381.5,2388.5 Z"/></g>
<g><path style="opacity:0.991" fill="#fefffe" d="M 890.5,2646.5 C 982.834,2646.33 1075.17,2646.5 1167.5,2647C 1170.05,2647.76 1172.55,2648.59 1175,2649.5C 1175.11,2654.69 1174.61,2659.86 1173.5,2665C 1148.82,2798.94 1125.15,2933.1 1102.5,3067.5C 853.167,3067.5 603.833,3067.5 354.5,3067.5C 352.399,3036.22 363.066,3010.39 386.5,2990C 544.466,2880.34 701.799,2769.67 858.5,2658C 868.008,2650.67 878.675,2646.83 890.5,2646.5 Z"/></g>
<g><path style="opacity:0.994" fill="#fefffe" d="M 2446.5,2646.5 C 2682.83,2646.33 2919.17,2646.5 3155.5,2647C 3168.21,2647.1 3180.88,2647.77 3193.5,2649C 3202.02,2651.13 3210.02,2654.46 3217.5,2659C 3266.87,2695.6 3288.7,2744.76 3283,2806.5C 3268.72,2904.38 3217.56,2974.88 3129.5,3018C 3056.17,3049.47 2979.51,3066.13 2899.5,3068C 2719.17,3068.5 2538.83,3068.67 2358.5,3068.5C 2383.67,2928.48 2408.34,2788.14 2432.5,2647.5C 2437.36,2647.82 2442.03,2647.49 2446.5,2646.5 Z"/></g>
<g><path style="opacity:0.935" fill="#fefffe" d="M 3426.5,2646.5 C 3512.51,2646.08 3598.51,2646.58 3684.5,2648C 3686.22,2648.52 3687.56,2649.52 3688.5,2651C 3679.24,2707.33 3669.58,2763.49 3659.5,2819.5C 3804.83,2819.5 3950.17,2819.5 4095.5,2819.5C 4093.23,2836.52 4090.73,2853.52 4088,2870.5C 4075.53,2935.98 4063.7,3001.65 4052.5,3067.5C 3801.83,3067.5 3551.17,3067.5 3300.5,3067.5C 3323.41,2933.04 3347.08,2798.71 3371.5,2664.5C 3373.58,2657.16 3377.91,2651.66 3384.5,2648C 3398.67,2647.83 3412.67,2647.33 3426.5,2646.5 Z M 4023.5,2859.5 C 4031.83,2859.5 4040.17,2859.5 4048.5,2859.5C 4048.62,2862.91 4046.95,2864.24 4043.5,2863.5C 4043.54,2865.36 4042.71,2866.69 4041,2867.5C 4039.61,2866.45 4038.11,2866.28 4036.5,2867C 4037.34,2868.01 4037.67,2869.18 4037.5,2870.5C 4034.52,2870.96 4031.52,2871.3 4028.5,2871.5C 4028.66,2872.87 4028.49,2874.21 4028,2875.5C 4025.26,2876.28 4022.43,2876.78 4019.5,2877C 4018.62,2878.36 4018.29,2879.86 4018.5,2881.5C 4016.83,2881.5 4015.17,2881.5 4013.5,2881.5C 4013.5,2882.83 4013.5,2884.17 4013.5,2885.5C 4007.12,2885.29 4000.79,2885.63 3994.5,2886.5C 3994.5,2885.5 3994.5,2884.5 3994.5,2883.5C 3996.17,2883.5 3997.83,2883.5 3999.5,2883.5C 3999.5,2882.5 3999.5,2881.5 3999.5,2880.5C 4001.17,2880.5 4002.83,2880.5 4004.5,2880.5C 4004.5,2878.83 4004.5,2877.17 4004.5,2875.5C 4005.87,2875.66 4007.21,2875.49 4008.5,2875C 4009.05,2873.16 4010.05,2871.66 4011.5,2870.5C 4013.89,2871.52 4014.89,2870.52 4014.5,2867.5C 4017.42,2867.85 4019.75,2866.85 4021.5,2864.5C 4022.09,2864.71 4022.59,2865.04 4023,2865.5C 4023.5,2863.53 4023.66,2861.53 4023.5,2859.5 Z M 3407.5,2930.5 C 3407.38,2934.27 3405.38,2935.94 3401.5,2935.5C 3401.97,2938.35 3401.14,2940.68 3399,2942.5C 3398.33,2941.83 3397.67,2941.17 3397,2940.5C 3396.67,2943.17 3396.33,2945.83 3396,2948.5C 3394.67,2949.83 3393.33,2949.83 3392,2948.5C 3391.82,2951.88 3391.32,2955.22 3390.5,2958.5C 3389.57,2959.64 3388.74,2959.64 3388,2958.5C 3386,2966.83 3386,2975.17 3388,2983.5C 3389,2982.17 3390,2982.17 3391,2983.5C 3391.49,2985.13 3391.66,2986.8 3391.5,2988.5C 3393.17,2988.5 3394.83,2988.5 3396.5,2988.5C 3396.5,2989.83 3396.5,2991.17 3396.5,2992.5C 3407.83,2992.5 3419.17,2992.5 3430.5,2992.5C 3430.5,2990.83 3430.5,2989.17 3430.5,2987.5C 3432.5,2987.5 3434.5,2987.5 3436.5,2987.5C 3436.33,2986.18 3436.66,2985.01 3437.5,2984C 3439.56,2983.56 3441.89,2983.23 3444.5,2983C 3445.25,2984.73 3445.75,2986.57 3446,2988.5C 3446.72,2987.55 3447.55,2987.38 3448.5,2988C 3450.07,2989.83 3450.91,2991.99 3451,2994.5C 3452,2993.17 3453,2993.17 3454,2994.5C 3457.11,2999.98 3455.61,3002.81 3449.5,3003C 3448.78,3005.12 3447.61,3005.62 3446,3004.5C 3445.52,3005.45 3445.35,3006.45 3445.5,3007.5C 3443.83,3007.5 3442.17,3007.5 3440.5,3007.5C 3440.71,3009.14 3440.38,3010.64 3439.5,3012C 3436.52,3012.5 3433.52,3012.66 3430.5,3012.5C 3430.5,3013.83 3430.5,3015.17 3430.5,3016.5C 3422.53,3017.32 3414.53,3017.66 3406.5,3017.5C 3406.5,3018.83 3406.5,3020.17 3406.5,3021.5C 3404.83,3021.5 3403.17,3021.5 3401.5,3021.5C 3401.5,3022.5 3401.5,3023.5 3401.5,3024.5C 3398.17,3024.5 3394.83,3024.5 3391.5,3024.5C 3391.5,3022.17 3391.5,3019.83 3391.5,3017.5C 3385.17,3017.5 3378.83,3017.5 3372.5,3017.5C 3372.5,3015.83 3372.5,3014.17 3372.5,3012.5C 3369.48,3012.66 3366.48,3012.5 3363.5,3012C 3362.66,3010.99 3362.33,3009.82 3362.5,3008.5C 3358.09,3008.94 3356.43,3006.94 3357.5,3002.5C 3356.17,3002.5 3354.83,3002.5 3353.5,3002.5C 3352.89,2997.19 3352.39,2991.85 3352,2986.5C 3349.36,2987.71 3348.19,2986.71 3348.5,2983.5C 3348.18,2980.49 3349.51,2979.15 3352.5,2979.5C 3352.17,2972.76 3352.67,2966.09 3354,2959.5C 3355.01,2958.66 3356.18,2958.33 3357.5,2958.5C 3357.34,2955.48 3357.5,2952.48 3358,2949.5C 3359.08,2947.61 3360.41,2947.27 3362,2948.5C 3362.15,2945.43 3362.98,2942.6 3364.5,2940C 3365.45,2939.38 3366.28,2939.55 3367,2940.5C 3367.33,2938.5 3367.67,2936.5 3368,2934.5C 3369.33,2933.17 3370.67,2933.17 3372,2934.5C 3371.41,2930.1 3373.24,2928.1 3377.5,2928.5C 3376.83,2924.5 3378.5,2922.83 3382.5,2923.5C 3382.34,2922.13 3382.51,2920.79 3383,2919.5C 3384,2918.17 3385,2918.17 3386,2919.5C 3386.38,2914.98 3388.88,2913.31 3393.5,2914.5C 3393.35,2912.06 3394.19,2911.39 3396,2912.5C 3397.01,2909.55 3398.84,2908.89 3401.5,2910.5C 3402.43,2909.31 3402.76,2907.98 3402.5,2906.5C 3406.87,2906.13 3411.2,2905.46 3415.5,2904.5C 3416.25,2903.26 3416.58,2901.93 3416.5,2900.5C 3424.17,2900.67 3431.84,2900.5 3439.5,2900C 3440.38,2898.64 3440.71,2897.14 3440.5,2895.5C 3445.25,2895.27 3449.91,2895.77 3454.5,2897C 3455.81,2898.39 3455.48,2899.39 3453.5,2900C 3460.17,2900.33 3466.83,2900.67 3473.5,2901C 3474.83,2902.33 3474.83,2903.67 3473.5,2905C 3475.13,2904.8 3476.79,2904.8 3478.5,2905C 3479.34,2906.01 3479.67,2907.18 3479.5,2908.5C 3483.5,2907.83 3485.17,2909.5 3484.5,2913.5C 3488.14,2912.74 3489.64,2914.07 3489,2917.5C 3485.89,2918.79 3482.73,2919.79 3479.5,2920.5C 3479.5,2921.83 3479.5,2923.17 3479.5,2924.5C 3476.14,2924.62 3472.81,2924.95 3469.5,2925.5C 3470.17,2929.5 3468.5,2931.17 3464.5,2930.5C 3464.5,2931.83 3464.5,2933.17 3464.5,2934.5C 3462.08,2934.29 3459.75,2934.63 3457.5,2935.5C 3455.02,2934.28 3454.02,2932.28 3454.5,2929.5C 3451.09,2929.62 3449.76,2927.95 3450.5,2924.5C 3439.17,2924.5 3427.83,2924.5 3416.5,2924.5C 3416.79,2926.29 3416.45,2927.95 3415.5,2929.5C 3412.81,2929.39 3410.14,2929.73 3407.5,2930.5 Z M 3523.5,2895.5 C 3555.51,2895.17 3587.51,2895.5 3619.5,2896.5C 3618.71,2898.49 3617.54,2898.82 3616,2897.5C 3615.67,2900.5 3615.33,2903.5 3615,2906.5C 3613.67,2907.83 3612.33,2907.83 3611,2906.5C 3610.67,2910.17 3610.33,2913.83 3610,2917.5C 3608.67,2918.83 3607.33,2918.83 3606,2917.5C 3605.52,2918.45 3605.35,2919.45 3605.5,2920.5C 3586.19,2919.38 3566.86,2919.22 3547.5,2920C 3546.66,2921.01 3546.33,2922.18 3546.5,2923.5C 3545.17,2923.5 3543.83,2923.5 3542.5,2923.5C 3542.67,2927.18 3542.5,2930.85 3542,2934.5C 3540.67,2935.83 3539.33,2935.83 3538,2934.5C 3537.5,2939.15 3537.33,2943.82 3537.5,2948.5C 3553.82,2949.8 3570.16,2949.8 3586.5,2948.5C 3586.75,2951.32 3586.25,2953.99 3585,2956.5C 3584,2957.83 3583,2957.83 3582,2956.5C 3581.67,2960.17 3581.33,2963.83 3581,2967.5C 3579.64,2968.38 3578.14,2968.71 3576.5,2968.5C 3576.5,2970.17 3576.5,2971.83 3576.5,2973.5C 3558.83,2973.5 3541.17,2973.5 3523.5,2973.5C 3524,2977.49 3522.5,2979.16 3519,2978.5C 3518.86,2982.62 3518.19,2986.62 3517,2990.5C 3516,2991.83 3515,2991.83 3514,2990.5C 3513.24,2992.77 3513.41,2994.94 3514.5,2997C 3535.2,2997.8 3555.86,2997.63 3576.5,2996.5C 3576.65,3000.16 3575.15,3001.16 3572,2999.5C 3571.67,3002.83 3571.33,3006.17 3571,3009.5C 3569.67,3012.17 3568.33,3012.17 3567,3009.5C 3566.83,3013.21 3566.33,3016.88 3565.5,3020.5C 3564.57,3021.64 3563.74,3021.64 3563,3020.5C 3561.81,3021.56 3561.31,3022.9 3561.5,3024.5C 3530.83,3024.5 3500.17,3024.5 3469.5,3024.5C 3469.04,3020.42 3469.71,3016.58 3471.5,3013C 3472.45,3012.38 3473.28,3012.55 3474,3013.5C 3474.33,3010.17 3474.67,3006.83 3475,3003.5C 3476.33,3002.17 3477.67,3002.17 3479,3003.5C 3479.33,2999.83 3479.67,2996.17 3480,2992.5C 3481.33,2991.17 3482.67,2991.17 3484,2992.5C 3484.33,2988.83 3484.67,2985.17 3485,2981.5C 3486,2980.17 3487,2980.17 3488,2981.5C 3489.07,2977.92 3489.74,2974.25 3490,2970.5C 3491,2969.17 3492,2969.17 3493,2970.5C 3493.39,2966.47 3493.89,2962.47 3494.5,2958.5C 3495.83,2958.5 3497.17,2958.5 3498.5,2958.5C 3498.34,2955.48 3498.5,2952.48 3499,2949.5C 3500.08,2947.61 3501.41,2947.27 3503,2948.5C 3503.33,2945.5 3503.67,2942.5 3504,2939.5C 3505.08,2937.61 3506.41,2937.27 3508,2938.5C 3508.33,2935.17 3508.67,2931.83 3509,2928.5C 3510.33,2927.17 3511.67,2927.17 3513,2928.5C 3513.24,2924.78 3513.74,2921.11 3514.5,2917.5C 3515.65,2916.27 3516.82,2916.27 3518,2917.5C 3518.17,2913.46 3518.67,2909.46 3519.5,2905.5C 3520.43,2904.36 3521.26,2904.36 3522,2905.5C 3523.32,2902.31 3523.82,2898.98 3523.5,2895.5 Z M 3693.5,2895.5 C 3704.83,2895.5 3716.17,2895.5 3727.5,2895.5C 3727.67,2915.17 3727.5,2934.84 3727,2954.5C 3726.05,2956.59 3724.71,2956.93 3723,2955.5C 3722.5,2978.5 3722.33,3001.5 3722.5,3024.5C 3711.17,3024.5 3699.83,3024.5 3688.5,3024.5C 3688.82,3015.58 3688.48,3006.75 3687.5,2998C 3669.84,2997.5 3652.17,2997.33 3634.5,2997.5C 3634.5,2999.17 3634.5,3000.83 3634.5,3002.5C 3633.02,3002.24 3631.69,3002.57 3630.5,3003.5C 3629.99,3005.23 3629.32,3006.89 3628.5,3008.5C 3627.57,3009.64 3626.74,3009.64 3626,3008.5C 3626,3011.23 3624.83,3013.23 3622.5,3014.5C 3621.91,3014.29 3621.41,3013.96 3621,3013.5C 3620.71,3015.89 3620.21,3018.22 3619.5,3020.5C 3618.31,3021.43 3616.98,3021.76 3615.5,3021.5C 3615.5,3022.5 3615.5,3023.5 3615.5,3024.5C 3604.17,3024.5 3592.83,3024.5 3581.5,3024.5C 3580.83,3020.32 3582.33,3018.99 3586,3020.5C 3586.33,3018.83 3586.67,3017.17 3587,3015.5C 3588,3014.17 3589,3014.17 3590,3015.5C 3591.02,3014.11 3591.85,3012.61 3592.5,3011C 3593.45,3010.52 3594.45,3010.35 3595.5,3010.5C 3595.7,3008.04 3596.37,3005.71 3597.5,3003.5C 3598.43,3002.36 3599.26,3002.36 3600,3003.5C 3599.81,2999.49 3601.65,2997.49 3605.5,2997.5C 3604.83,2993.5 3606.5,2991.83 3610.5,2992.5C 3610.34,2990.8 3610.51,2989.13 3611,2987.5C 3612.33,2986.17 3613.67,2986.17 3615,2987.5C 3615.25,2985.57 3615.75,2983.73 3616.5,2982C 3617.78,2981.32 3618.95,2981.48 3620,2982.5C 3620.02,2979.69 3621.02,2977.36 3623,2975.5C 3623.41,2975.96 3623.91,2976.29 3624.5,2976.5C 3625.31,2974.58 3625.81,2972.58 3626,2970.5C 3627,2969.17 3628,2969.17 3629,2970.5C 3630.13,2968.65 3630.63,2966.65 3630.5,2964.5C 3631.83,2964.5 3633.17,2964.5 3634.5,2964.5C 3633.43,2960.06 3635.09,2958.06 3639.5,2958.5C 3638.83,2954.5 3640.5,2952.83 3644.5,2953.5C 3644.34,2951.8 3644.51,2950.13 3645,2948.5C 3646.33,2947.17 3647.67,2947.17 3649,2948.5C 3649.33,2946.83 3649.67,2945.17 3650,2943.5C 3651.33,2942.17 3652.67,2942.17 3654,2943.5C 3653.41,2939.1 3655.24,2937.1 3659.5,2937.5C 3659.19,2935.08 3659.53,2932.74 3660.5,2930.5C 3661.72,2930 3662.88,2929.67 3664,2929.5C 3664.49,2928.21 3664.66,2926.87 3664.5,2925.5C 3665.83,2925.5 3667.17,2925.5 3668.5,2925.5C 3667.43,2921.06 3669.09,2919.06 3673.5,2919.5C 3672.83,2915.5 3674.5,2913.83 3678.5,2914.5C 3678.21,2912.71 3678.55,2911.05 3679.5,2909.5C 3680.5,2908.17 3681.5,2908.17 3682.5,2909.5C 3683,2906.78 3684.17,2904.45 3686,2902.5C 3686.41,2902.96 3686.91,2903.29 3687.5,2903.5C 3687.71,2899.63 3689.71,2897.96 3693.5,2898.5C 3693.5,2897.5 3693.5,2896.5 3693.5,2895.5 Z M 3800.5,2895.5 C 3821.5,2895.5 3842.5,2895.5 3863.5,2895.5C 3863.5,2897.17 3863.5,2898.83 3863.5,2900.5C 3869.51,2900.33 3875.51,2900.5 3881.5,2901C 3882.23,2902.4 3882.73,2903.9 3883,2905.5C 3884.36,2904.62 3885.86,2904.29 3887.5,2904.5C 3887.5,2906.17 3887.5,2907.83 3887.5,2909.5C 3889.14,2909.29 3890.64,2909.62 3892,2910.5C 3892.67,2920.5 3892.67,2930.5 3892,2940.5C 3891.07,2942.33 3889.91,2942.67 3888.5,2941.5C 3887.83,2945.5 3887.17,2949.5 3886.5,2953.5C 3885.28,2954.71 3884.11,2954.71 3883,2953.5C 3882.67,2955.83 3882.33,2958.17 3882,2960.5C 3880.89,2961.71 3879.72,2961.71 3878.5,2960.5C 3877.69,2962.77 3877.19,2965.1 3877,2967.5C 3874.4,2968.08 3871.57,2968.75 3868.5,2969.5C 3869.17,2973.5 3867.5,2975.17 3863.5,2974.5C 3863.5,2975.83 3863.5,2977.17 3863.5,2978.5C 3860.17,2978.5 3856.83,2978.5 3853.5,2978.5C 3853.5,2980.17 3853.5,2981.83 3853.5,2983.5C 3850.48,2983.34 3847.48,2983.5 3844.5,2984C 3843.38,2987.07 3843.22,2990.24 3844,2993.5C 3845.71,2992.07 3847.05,2992.41 3848,2994.5C 3848.33,2999.5 3848.67,3004.5 3849,3009.5C 3850.33,3006.83 3851.67,3006.83 3853,3009.5C 3853.5,3014.49 3853.67,3019.49 3853.5,3024.5C 3842.17,3024.5 3830.83,3024.5 3819.5,3024.5C 3819.67,3020.15 3819.5,3015.82 3819,3011.5C 3817.29,3012.93 3815.95,3012.59 3815,3010.5C 3814.67,3005.5 3814.33,3000.5 3814,2995.5C 3812.99,2996.34 3811.82,2996.67 3810.5,2996.5C 3810.15,2993.57 3809.48,2990.74 3808.5,2988C 3802.47,2987.36 3796.47,2987.53 3790.5,2988.5C 3790.67,2992.85 3790.5,2997.18 3790,3001.5C 3788.64,3002.38 3787.14,3002.71 3785.5,3002.5C 3785.66,3005.19 3785.5,3007.85 3785,3010.5C 3784.05,3012.59 3782.71,3012.93 3781,3011.5C 3780.5,3015.82 3780.33,3020.15 3780.5,3024.5C 3769.17,3024.5 3757.83,3024.5 3746.5,3024.5C 3746.04,3020.42 3746.71,3016.58 3748.5,3013C 3749.45,3012.38 3750.28,3012.55 3751,3013.5C 3751.33,3010.17 3751.67,3006.83 3752,3003.5C 3753.33,3002.17 3754.67,3002.17 3756,3003.5C 3756.33,2999.83 3756.67,2996.17 3757,2992.5C 3758.33,2991.17 3759.67,2991.17 3761,2992.5C 3761.33,2988.83 3761.67,2985.17 3762,2981.5C 3763,2980.17 3764,2980.17 3765,2981.5C 3766.07,2977.92 3766.74,2974.25 3767,2970.5C 3768,2969.17 3769,2969.17 3770,2970.5C 3770.39,2966.47 3770.89,2962.47 3771.5,2958.5C 3772.83,2958.5 3774.17,2958.5 3775.5,2958.5C 3775.34,2955.48 3775.5,2952.48 3776,2949.5C 3777.08,2947.61 3778.41,2947.27 3780,2948.5C 3780.33,2945.5 3780.67,2942.5 3781,2939.5C 3782.08,2937.61 3783.41,2937.27 3785,2938.5C 3785.33,2935.17 3785.67,2931.83 3786,2928.5C 3787.08,2926.61 3788.41,2926.27 3790,2927.5C 3790.25,2924.11 3790.75,2920.78 3791.5,2917.5C 3792.65,2916.27 3793.82,2916.27 3795,2917.5C 3795.17,2913.46 3795.67,2909.46 3796.5,2905.5C 3797.72,2905 3798.88,2904.67 3800,2904.5C 3800.5,2901.52 3800.66,2898.52 3800.5,2895.5 Z M 3984.5,2895.5 C 3995.83,2895.5 4007.17,2895.5 4018.5,2895.5C 4018.67,2915.5 4018.5,2935.5 4018,2955.5C 4016.64,2956.38 4015.14,2956.71 4013.5,2956.5C 4013.5,2979.17 4013.5,3001.83 4013.5,3024.5C 4002.17,3024.5 3990.83,3024.5 3979.5,3024.5C 3979.5,3015.5 3979.5,3006.5 3979.5,2997.5C 3961.83,2997.5 3944.17,2997.5 3926.5,2997.5C 3926.5,2999.17 3926.5,3000.83 3926.5,3002.5C 3924.83,3002.5 3923.17,3002.5 3921.5,3002.5C 3921.8,3004.6 3921.47,3006.6 3920.5,3008.5C 3919.5,3009.83 3918.5,3009.83 3917.5,3008.5C 3916.7,3010.08 3916.2,3011.74 3916,3013.5C 3914.89,3014.71 3913.72,3014.71 3912.5,3013.5C 3911.69,3015.77 3911.19,3018.1 3911,3020.5C 3909.99,3021.34 3908.82,3021.67 3907.5,3021.5C 3907.5,3022.5 3907.5,3023.5 3907.5,3024.5C 3895.83,3024.5 3884.17,3024.5 3872.5,3024.5C 3872.18,3020.69 3873.68,3019.36 3877,3020.5C 3877,3017.77 3878.17,3015.77 3880.5,3014.5C 3881.09,3014.71 3881.59,3015.04 3882,3015.5C 3881.78,3011.36 3883.45,3010.03 3887,3011.5C 3886.91,3008.04 3887.91,3005.04 3890,3002.5C 3890.41,3002.96 3890.91,3003.29 3891.5,3003.5C 3892.23,3001.66 3892.9,2999.83 3893.5,2998C 3894.78,2997.32 3895.95,2997.48 3897,2998.5C 3897.5,2996.53 3897.66,2994.53 3897.5,2992.5C 3899.17,2992.5 3900.83,2992.5 3902.5,2992.5C 3901.6,2988.76 3902.93,2986.76 3906.5,2986.5C 3906.5,2983.17 3908.17,2981.5 3911.5,2981.5C 3910.83,2977.5 3912.5,2975.83 3916.5,2976.5C 3916.32,2974.06 3916.98,2971.9 3918.5,2970C 3919.45,2969.38 3920.28,2969.55 3921,2970.5C 3920.41,2966.1 3922.24,2964.1 3926.5,2964.5C 3926.5,2962.5 3926.5,2960.5 3926.5,2958.5C 3928.17,2958.5 3929.83,2958.5 3931.5,2958.5C 3931.5,2956.83 3931.5,2955.17 3931.5,2953.5C 3933.17,2953.5 3934.83,2953.5 3936.5,2953.5C 3935.6,2949.76 3936.93,2947.76 3940.5,2947.5C 3940.5,2944.17 3942.17,2942.5 3945.5,2942.5C 3945.18,2938.83 3946.85,2937.16 3950.5,2937.5C 3950.3,2935.01 3950.8,2932.68 3952,2930.5C 3952.74,2929.36 3953.57,2929.36 3954.5,2930.5C 3955.22,2928.48 3956.39,2926.82 3958,2925.5C 3958.77,2925.64 3959.44,2925.98 3960,2926.5C 3960.5,2924.19 3960.66,2921.86 3960.5,2919.5C 3962.17,2919.5 3963.83,2919.5 3965.5,2919.5C 3964.83,2915.5 3966.5,2913.83 3970.5,2914.5C 3970.21,2912.71 3970.55,2911.05 3971.5,2909.5C 3972.43,2908.36 3973.26,2908.36 3974,2909.5C 3974.83,2907.5 3975.67,2905.5 3976.5,2903.5C 3977.43,2902.36 3978.26,2902.36 3979,2903.5C 3979.4,2900.06 3981.07,2898.72 3984,2899.5C 3984.49,2898.21 3984.66,2896.87 3984.5,2895.5 Z M 3407.5,2930.5 C 3408.29,2930.78 3408.96,2931.28 3409.5,2932C 3408.18,2932.53 3407.52,2932.03 3407.5,2930.5 Z"/></g>
<g><path style="opacity:0.988" fill="#fefffe" d="M 107.5,2647.5 C 272.167,2647.5 436.833,2647.5 601.5,2647.5C 591.449,2695.47 570.449,2737.8 538.5,2774.5C 502.353,2814.08 459.686,2844.58 410.5,2866C 341.342,2891.52 273.342,2888.86 206.5,2858C 161.061,2831.55 129.894,2793.39 113,2743.5C 105.198,2711.86 103.364,2679.86 107.5,2647.5 Z"/></g>
<g><path style="opacity:0.981" fill="#fefffe" d="M 1589.5,2647.5 C 1731.5,2647.33 1873.5,2647.5 2015.5,2648C 1927.12,2750.23 1838.12,2852.06 1748.5,2953.5C 1746.44,2949.73 1744.11,2946.07 1741.5,2942.5C 1698.15,2859.41 1654.82,2776.41 1611.5,2693.5C 1605.61,2681.38 1599.44,2669.38 1593,2657.5C 1591.53,2654.24 1590.37,2650.91 1589.5,2647.5 Z"/></g>
<g><path style="opacity:0.987" fill="#fefffe" d="M 2016.5,2647.5 C 2121.17,2647.5 2225.83,2647.5 2330.5,2647.5C 2305.6,2786.86 2281.1,2926.53 2257,3066.5C 2256.5,3067 2256,3067.5 2255.5,3068C 2151.17,3068.5 2046.83,3068.67 1942.5,3068.5C 1967.71,2928.14 1992.37,2787.81 2016.5,2647.5 Z"/></g>
<g><path style="opacity:0.988" fill="#fefffe" d="M 1278.5,2648.5 C 1381.17,2648.5 1483.83,2648.5 1586.5,2648.5C 1582.63,2677.54 1577.97,2706.37 1572.5,2735C 1552.61,2843.17 1533.44,2951.34 1515,3059.5C 1513.85,3062.02 1513.02,3064.68 1512.5,3067.5C 1409.93,3068.83 1307.43,3068.83 1205,3067.5C 1229.29,2927.75 1253.79,2788.09 1278.5,2648.5 Z"/></g>
<g><path style="opacity:0.647" fill="#fefffe" d="M 3825.5,2919.5 C 3832.51,2919.33 3839.51,2919.5 3846.5,2920C 3848,2921.34 3849,2923 3849.5,2925C 3850.78,2925.68 3851.95,2925.52 3853,2924.5C 3853.31,2926.56 3853.81,2928.56 3854.5,2930.5C 3855.65,2931.73 3856.82,2931.73 3858,2930.5C 3858.67,2934.5 3858.67,2938.5 3858,2942.5C 3856.67,2941.17 3855.33,2941.17 3854,2942.5C 3853.83,2946.21 3853.33,2949.88 3852.5,2953.5C 3851.09,2952.33 3849.93,2952.67 3849,2954.5C 3848.51,2955.79 3848.34,2957.13 3848.5,2958.5C 3846.83,2958.5 3845.17,2958.5 3843.5,2958.5C 3843.5,2960.17 3843.5,2961.83 3843.5,2963.5C 3832.17,2963.5 3820.83,2963.5 3809.5,2963.5C 3809.33,2958.16 3809.5,2952.82 3810,2947.5C 3811.71,2948.93 3813.05,2948.59 3814,2946.5C 3814.33,2942.83 3814.67,2939.17 3815,2935.5C 3816.33,2936.83 3817.67,2936.83 3819,2935.5C 3819.5,2931.85 3819.67,2928.18 3819.5,2924.5C 3823.31,2925.02 3825.31,2923.35 3825.5,2919.5 Z"/></g>
<g><path style="opacity:0.508" fill="#fefffe" d="M 3683.5,2934.5 C 3687.03,2933.99 3690.2,2934.66 3693,2936.5C 3693.67,2948.5 3693.67,2960.5 3693,2972.5C 3682.2,2973.82 3671.36,2973.82 3660.5,2972.5C 3659.35,2970.24 3659.19,2967.9 3660,2965.5C 3660.33,2965.83 3660.67,2966.17 3661,2966.5C 3662.91,2964 3665.25,2962 3668,2960.5C 3668.49,2958.87 3668.66,2957.2 3668.5,2955.5C 3672.91,2955.94 3674.57,2953.94 3673.5,2949.5C 3675.14,2949.71 3676.64,2949.38 3678,2948.5C 3678.33,2946.5 3678.67,2944.5 3679,2942.5C 3680.18,2943.73 3681.35,2943.73 3682.5,2942.5C 3683.39,2939.92 3683.73,2937.25 3683.5,2934.5 Z"/></g>
<g><path style="opacity:0.522" fill="#fefffe" d="M 3975.5,2934.5 C 3978.5,2934.5 3981.5,2934.5 3984.5,2934.5C 3984.5,2947.5 3984.5,2960.5 3984.5,2973.5C 3973.13,2973.77 3961.8,2973.43 3950.5,2972.5C 3950.19,2970.08 3950.53,2967.74 3951.5,2965.5C 3952.91,2966.67 3954.07,2966.33 3955,2964.5C 3955.33,2963.17 3955.67,2961.83 3956,2960.5C 3957.18,2961.73 3958.35,2961.73 3959.5,2960.5C 3960.19,2958.56 3960.69,2956.56 3961,2954.5C 3962.33,2955.83 3963.67,2955.83 3965,2954.5C 3965.49,2952.87 3965.66,2951.2 3965.5,2949.5C 3969.91,2949.94 3971.57,2947.94 3970.5,2943.5C 3971.82,2943.67 3972.99,2943.34 3974,2942.5C 3975.08,2939.94 3975.58,2937.27 3975.5,2934.5 Z"/></g>
<g><path style="opacity:0.998" fill="#fefffe" d="M 353.5,3092.5 C 1798.83,3092.17 3244.17,3092.5 4689.5,3093.5C 4686.55,3094.32 4683.55,3094.82 4680.5,3095C 4679.62,3096.36 4679.29,3097.86 4679.5,3099.5C 4676.99,3099.84 4674.66,3099.84 4672.5,3099.5C 4670.02,3100.42 4669.35,3101.92 4670.5,3104C 4667.06,3104.12 4664.06,3105.28 4661.5,3107.5C 4662.03,3108.19 4662.69,3108.69 4663.5,3109C 4660.85,3109.5 4658.19,3109.66 4655.5,3109.5C 4655.71,3111.14 4655.38,3112.64 4654.5,3114C 4652.1,3114.71 4649.77,3114.54 4647.5,3113.5C 4645.78,3114.67 4645.12,3116.34 4645.5,3118.5C 4642.19,3119.05 4638.86,3119.38 4635.5,3119.5C 4635.5,3120.83 4635.5,3122.17 4635.5,3123.5C 4632.52,3123.96 4629.52,3124.3 4626.5,3124.5C 4626.5,3125.83 4626.5,3127.17 4626.5,3128.5C 4623.25,3128.66 4620.25,3129.66 4617.5,3131.5C 4617.71,3132.09 4618.04,3132.59 4618.5,3133C 4616.19,3133.5 4613.86,3133.66 4611.5,3133.5C 4611.5,3135.17 4611.5,3136.83 4611.5,3138.5C 4608.17,3138.5 4604.83,3138.5 4601.5,3138.5C 4601.5,3140.17 4601.5,3141.83 4601.5,3143.5C 3185.54,3145.5 1769.54,3146.16 353.5,3145.5C 353.5,3127.83 353.5,3110.17 353.5,3092.5 Z"/></g>
</svg>
